<svg width="62" height="18" viewBox="0 0 62 18" fill="none" xmlns="http://www.w3.org/2000/svg">
<path d="M10.8617 0.456181L9.15926 0L7.72456 5.35438L6.42929 0.52041L4.72678 0.976591L6.12624 6.19933L2.64052 2.71363L1.39422 3.95994L5.21761 7.78337L0.45618 6.50754L0 8.21L5.20246 9.60401C5.1429 9.3471 5.11139 9.07941 5.11139 8.80437C5.11139 6.85751 6.68962 5.27928 8.63648 5.27928C10.5833 5.27928 12.1616 6.85751 12.1616 8.80437C12.1616 9.07764 12.1305 9.34368 12.0716 9.59907L16.7997 10.8659L17.2559 9.16348L12.0327 7.76393L16.7945 6.48801L16.3383 4.78555L11.1153 6.18501L14.601 2.69932L13.3547 1.45302L9.58437 5.22339L10.8617 0.456181Z" fill="url(#paint0_linear_2055_43)"/>
<path d="M12.0669 9.61914C11.9209 10.2362 11.6128 10.7906 11.1899 11.2348L14.6152 14.6601L15.8615 13.4138L12.0669 9.61914Z" fill="url(#paint1_linear_2055_43)"/>
<path d="M11.1552 11.2705C10.7273 11.7076 10.1865 12.0337 9.58008 12.2018L10.8265 16.8534L12.5289 16.3972L11.1552 11.2705Z" fill="url(#paint2_linear_2055_43)"/>
<path d="M9.51716 12.2191C9.2358 12.2915 8.94089 12.3299 8.63697 12.3299C8.31137 12.3299 7.99607 12.2858 7.69674 12.2031L6.44922 16.859L8.15168 17.3151L9.51716 12.2191Z" fill="url(#paint3_linear_2055_43)"/>
<path d="M7.63604 12.1853C7.03885 12.0089 6.50768 11.6786 6.08849 11.2402L2.65479 14.674L3.90109 15.9203L7.63604 12.1853Z" fill="url(#paint4_linear_2055_43)"/>
<path d="M6.05989 11.2099C5.64789 10.7688 5.34778 10.2218 5.20494 9.61426L0.461426 10.8853L0.917603 12.5878L6.05989 11.2099Z" fill="url(#paint5_linear_2055_43)"/>
<path d="M22.8281 11.168C22.8281 12.9883 22.0273 13.9023 20.4258 13.9102C19.957 13.9102 19.5547 13.7109 19.2188 13.3125L19.7812 12.5039C20.0469 12.7852 20.3125 12.9258 20.5781 12.9258C21.3594 12.9258 21.7539 12.375 21.7617 11.2734V4.34766H22.8281V11.168ZM26.8828 12.1289C25.8047 12.1289 25.0234 11.7266 24.5391 10.9219C24.2109 10.3672 24.0469 9.71875 24.0469 8.97656C24.0469 7.94531 24.3711 7.14062 25.0195 6.5625C25.5508 6.09375 26.1758 5.85938 26.8945 5.85938C27.6055 5.85938 28.2148 6.09375 28.7227 6.5625C29.3477 7.14062 29.6602 7.94531 29.6602 8.97656C29.6602 9.69531 29.4766 10.3477 29.1094 10.9336C28.6094 11.7305 27.8672 12.1289 26.8828 12.1289ZM26.9531 6.65625C26.3203 6.65625 25.8359 6.90625 25.5 7.40625C25.2188 7.83594 25.0781 8.38281 25.0781 9.04688C25.0781 9.67969 25.2109 10.1992 25.4766 10.6055C25.7891 11.0977 26.2422 11.3477 26.8359 11.3555C27.4531 11.3555 27.9141 11.1016 28.2188 10.5938C28.4922 10.1719 28.6289 9.63672 28.6289 8.98828C28.6289 8.37109 28.5039 7.85156 28.2539 7.42969C27.9648 6.91406 27.5312 6.65625 26.9531 6.65625ZM33.3984 12.1172C32.8828 12.1172 32.3633 11.918 31.8398 11.5195L31.6758 12H30.9023V3.59766H31.8398V6.62109C32.3867 6.10547 32.8867 5.85156 33.3398 5.85938C34.1523 5.85938 34.793 6.17188 35.2617 6.79688C35.6836 7.35938 35.8984 8.05859 35.9062 8.89453C35.9062 9.81641 35.7188 10.5586 35.3438 11.1211C34.9219 11.7852 34.2734 12.1172 33.3984 12.1172ZM33.3281 6.67969C32.6016 6.67969 32.1055 6.96875 31.8398 7.54688V10.6992C31.9805 10.8945 32.2031 11.0469 32.5078 11.1562C32.7812 11.2656 33.043 11.3242 33.293 11.332C34.3086 11.332 34.8164 10.5312 34.8164 8.92969C34.8164 8.34375 34.7188 7.85156 34.5234 7.45312C34.2578 6.9375 33.8594 6.67969 33.3281 6.67969ZM40.3359 4.18359C39.9609 3.94141 39.6172 3.82031 39.3047 3.82031C38.9688 3.8125 38.7148 3.98438 38.543 4.33594C38.4258 4.60938 38.3672 4.93359 38.3672 5.30859V6.05859H40.0312V6.84375H38.3672V12H37.4531V6.84375H36.5156V6.05859H37.4531V5.27344C37.4531 4.64062 37.5977 4.12109 37.8867 3.71484C38.207 3.26953 38.6758 3.04688 39.293 3.04688C39.6523 3.04688 39.9297 3.08594 40.125 3.16406C40.1797 3.1875 40.4023 3.32422 40.793 3.57422L40.3359 4.18359ZM41.5898 4.78125C41.4023 4.78125 41.2461 4.71875 41.1211 4.59375C41.0039 4.46094 40.9453 4.30078 40.9453 4.11328C40.9453 3.92578 41.0039 3.77344 41.1211 3.65625C41.2461 3.53125 41.4023 3.46875 41.5898 3.46875C41.7773 3.46875 41.9297 3.53125 42.0469 3.65625C42.1641 3.78125 42.2227 3.93359 42.2227 4.11328C42.2227 4.30078 42.1641 4.46094 42.0469 4.59375C41.9297 4.71875 41.7773 4.78125 41.5898 4.78125ZM41.0391 12V6.05859H42.0117V12H41.0391ZM45.5391 12.0938C45.0938 12.0938 44.7461 11.8906 44.4961 11.4844C44.2773 11.1406 44.168 10.7344 44.168 10.2656V6.84375H43.2305V6.04688H44.168V4.83984H45.1172V6.04688H46.6641V6.85547L45.1172 6.84375V10.4062C45.1172 10.9453 45.3477 11.2109 45.8086 11.2031C46.0586 11.2031 46.3711 11.0234 46.7461 10.6641L47.2031 11.3203C46.7578 11.8359 46.2031 12.0938 45.5391 12.0938ZM47.7773 8.80078V7.67578H51.1406V8.80078H47.7773ZM57.1758 12.1172L56.4609 9.85547H53.7656L53.0742 12.1172L52.0898 12L54.6445 4.14844H55.6055L58.1953 11.9531L57.1758 12.1172ZM55.1133 5.39062L54.0234 9.02344H56.2266L55.1133 5.39062ZM59.3086 12V4.30078H60.375V12H59.3086Z" fill="url(#paint6_linear_2055_43)"/>
<defs>
<linearGradient id="paint0_linear_2055_43" x1="8.62793" y1="0" x2="8.62793" y2="10.8659" gradientUnits="userSpaceOnUse">
<stop stop-color="#5E9BF7"/>
<stop offset="1" stop-color="#55E0D9"/>
</linearGradient>
<linearGradient id="paint1_linear_2055_43" x1="13.5257" y1="9.61914" x2="13.5257" y2="14.6601" gradientUnits="userSpaceOnUse">
<stop stop-color="#5E9BF7"/>
<stop offset="1" stop-color="#55E0D9"/>
</linearGradient>
<linearGradient id="paint2_linear_2055_43" x1="11.0545" y1="11.2705" x2="11.0545" y2="16.8534" gradientUnits="userSpaceOnUse">
<stop stop-color="#5E9BF7"/>
<stop offset="1" stop-color="#55E0D9"/>
</linearGradient>
<linearGradient id="paint3_linear_2055_43" x1="7.98319" y1="12.2031" x2="7.98319" y2="17.3151" gradientUnits="userSpaceOnUse">
<stop stop-color="#5E9BF7"/>
<stop offset="1" stop-color="#55E0D9"/>
</linearGradient>
<linearGradient id="paint4_linear_2055_43" x1="5.14541" y1="11.2402" x2="5.14541" y2="15.9203" gradientUnits="userSpaceOnUse">
<stop stop-color="#5E9BF7"/>
<stop offset="1" stop-color="#55E0D9"/>
</linearGradient>
<linearGradient id="paint5_linear_2055_43" x1="3.26066" y1="9.61426" x2="3.26066" y2="12.5878" gradientUnits="userSpaceOnUse">
<stop stop-color="#5E9BF7"/>
<stop offset="1" stop-color="#55E0D9"/>
</linearGradient>
<linearGradient id="paint6_linear_2055_43" x1="41.5" y1="2" x2="41.5" y2="15" gradientUnits="userSpaceOnUse">
<stop stop-color="#5E9BF7"/>
<stop offset="1" stop-color="#55E0D9"/>
</linearGradient>
</defs>
</svg>
