<svg width="63" height="18" viewBox="0 0 63 18" fill="none" xmlns="http://www.w3.org/2000/svg">
<path d="M10.8617 0.456181L9.15926 0L7.72456 5.35438L6.42929 0.52041L4.72678 0.976591L6.12624 6.19933L2.64052 2.71363L1.39422 3.95994L5.21761 7.78337L0.45618 6.50754L0 8.21L5.20246 9.60401C5.1429 9.3471 5.11139 9.07941 5.11139 8.80437C5.11139 6.85751 6.68962 5.27928 8.63648 5.27928C10.5833 5.27928 12.1616 6.85751 12.1616 8.80437C12.1616 9.07764 12.1305 9.34368 12.0716 9.59907L16.7997 10.8659L17.2559 9.16348L12.0327 7.76393L16.7945 6.48801L16.3383 4.78555L11.1153 6.18501L14.601 2.69932L13.3547 1.45302L9.58437 5.22339L10.8617 0.456181Z" fill="url(#paint0_linear_2055_43)"/>
<path d="M12.0669 9.61914C11.9209 10.2362 11.6128 10.7906 11.1899 11.2348L14.6152 14.6601L15.8615 13.4138L12.0669 9.61914Z" fill="url(#paint1_linear_2055_43)"/>
<path d="M11.1552 11.2705C10.7273 11.7076 10.1865 12.0337 9.58008 12.2018L10.8265 16.8534L12.5289 16.3972L11.1552 11.2705Z" fill="url(#paint2_linear_2055_43)"/>
<path d="M9.51716 12.2191C9.2358 12.2915 8.94089 12.3299 8.63697 12.3299C8.31137 12.3299 7.99607 12.2858 7.69674 12.2031L6.44922 16.859L8.15168 17.3151L9.51716 12.2191Z" fill="url(#paint3_linear_2055_43)"/>
<path d="M7.63604 12.1853C7.03885 12.0089 6.50768 11.6786 6.08849 11.2402L2.65479 14.674L3.90109 15.9203L7.63604 12.1853Z" fill="url(#paint4_linear_2055_43)"/>
<path d="M6.05989 11.2099C5.64789 10.7688 5.34778 10.2218 5.20494 9.61426L0.461426 10.8853L0.917603 12.5878L6.05989 11.2099Z" fill="url(#paint5_linear_2055_43)"/>
<path d="M23.084 11.168C23.084 12.9883 22.2832 13.9023 20.6816 13.9102C20.2129 13.9102 19.8105 13.7109 19.4746 13.3125L20.0371 12.5039C20.3027 12.7852 20.5684 12.9258 20.834 12.9258C21.6152 12.9258 22.0098 12.375 22.0176 11.2734V4.34766H23.084V11.168ZM27.1387 12.1289C26.0605 12.1289 25.2793 11.7266 24.7949 10.9219C24.4668 10.3672 24.3027 9.71875 24.3027 8.97656C24.3027 7.94531 24.627 7.14062 25.2754 6.5625C25.8066 6.09375 26.4316 5.85938 27.1504 5.85938C27.8613 5.85938 28.4707 6.09375 28.9785 6.5625C29.6035 7.14062 29.916 7.94531 29.916 8.97656C29.916 9.69531 29.7324 10.3477 29.3652 10.9336C28.8652 11.7305 28.123 12.1289 27.1387 12.1289ZM27.209 6.65625C26.5762 6.65625 26.0918 6.90625 25.7559 7.40625C25.4746 7.83594 25.334 8.38281 25.334 9.04688C25.334 9.67969 25.4668 10.1992 25.7324 10.6055C26.0449 11.0977 26.498 11.3477 27.0918 11.3555C27.709 11.3555 28.1699 11.1016 28.4746 10.5938C28.748 10.1719 28.8848 9.63672 28.8848 8.98828C28.8848 8.37109 28.7598 7.85156 28.5098 7.42969C28.2207 6.91406 27.7871 6.65625 27.209 6.65625ZM33.6543 12.1172C33.1387 12.1172 32.6191 11.918 32.0957 11.5195L31.9316 12H31.1582V3.59766H32.0957V6.62109C32.6426 6.10547 33.1426 5.85156 33.5957 5.85938C34.4082 5.85938 35.0488 6.17188 35.5176 6.79688C35.9395 7.35938 36.1543 8.05859 36.1621 8.89453C36.1621 9.81641 35.9746 10.5586 35.5996 11.1211C35.1777 11.7852 34.5293 12.1172 33.6543 12.1172ZM33.584 6.67969C32.8574 6.67969 32.3613 6.96875 32.0957 7.54688V10.6992C32.2363 10.8945 32.459 11.0469 32.7637 11.1562C33.0371 11.2656 33.2988 11.3242 33.5488 11.332C34.5645 11.332 35.0723 10.5312 35.0723 8.92969C35.0723 8.34375 34.9746 7.85156 34.7793 7.45312C34.5137 6.9375 34.1152 6.67969 33.584 6.67969ZM40.5918 4.18359C40.2168 3.94141 39.873 3.82031 39.5605 3.82031C39.2246 3.8125 38.9707 3.98438 38.7988 4.33594C38.6816 4.60938 38.623 4.93359 38.623 5.30859V6.05859H40.2871V6.84375H38.623V12H37.709V6.84375H36.7715V6.05859H37.709V5.27344C37.709 4.64062 37.8535 4.12109 38.1426 3.71484C38.4629 3.26953 38.9316 3.04688 39.5488 3.04688C39.9082 3.04688 40.1855 3.08594 40.3809 3.16406C40.4355 3.1875 40.6582 3.32422 41.0488 3.57422L40.5918 4.18359ZM41.8457 4.78125C41.6582 4.78125 41.502 4.71875 41.377 4.59375C41.2598 4.46094 41.2012 4.30078 41.2012 4.11328C41.2012 3.92578 41.2598 3.77344 41.377 3.65625C41.502 3.53125 41.6582 3.46875 41.8457 3.46875C42.0332 3.46875 42.1855 3.53125 42.3027 3.65625C42.4199 3.78125 42.4785 3.93359 42.4785 4.11328C42.4785 4.30078 42.4199 4.46094 42.3027 4.59375C42.1855 4.71875 42.0332 4.78125 41.8457 4.78125ZM41.2949 12V6.05859H42.2676V12H41.2949ZM45.7949 12.0938C45.3496 12.0938 45.002 11.8906 44.752 11.4844C44.5332 11.1406 44.4238 10.7344 44.4238 10.2656V6.84375H43.4863V6.04688H44.4238V4.83984H45.373V6.04688H46.9199V6.85547L45.373 6.84375V10.4062C45.373 10.9453 45.6035 11.2109 46.0645 11.2031C46.3145 11.2031 46.627 11.0234 47.002 10.6641L47.459 11.3203C47.0137 11.8359 46.459 12.0938 45.7949 12.0938ZM48.0332 8.80078V7.67578H51.3965V8.80078H48.0332ZM57.4316 12.1172L56.7168 9.85547H54.0215L53.3301 12.1172L52.3457 12L54.9004 4.14844H55.8613L58.4512 11.9531L57.4316 12.1172ZM55.3691 5.39062L54.2793 9.02344H56.4824L55.3691 5.39062ZM59.5645 12V4.30078H60.6309V12H59.5645Z" fill="url(#paint6_linear_2055_43)"/>
<defs>
<linearGradient id="paint0_linear_2055_43" x1="8.62793" y1="0" x2="8.62793" y2="10.8659" gradientUnits="userSpaceOnUse">
<stop stop-color="#0A66C2"/>
<stop offset="1" stop-color="#0080FF"/>
</linearGradient>
<linearGradient id="paint1_linear_2055_43" x1="13.5257" y1="9.61914" x2="13.5257" y2="14.6601" gradientUnits="userSpaceOnUse">
<stop stop-color="#0A66C2"/>
<stop offset="1" stop-color="#0080FF"/>
</linearGradient>
<linearGradient id="paint2_linear_2055_43" x1="11.0545" y1="11.2705" x2="11.0545" y2="16.8534" gradientUnits="userSpaceOnUse">
<stop stop-color="#0A66C2"/>
<stop offset="1" stop-color="#0080FF"/>
</linearGradient>
<linearGradient id="paint3_linear_2055_43" x1="7.98319" y1="12.2031" x2="7.98319" y2="17.3151" gradientUnits="userSpaceOnUse">
<stop stop-color="#0A66C2"/>
<stop offset="1" stop-color="#0080FF"/>
</linearGradient>
<linearGradient id="paint4_linear_2055_43" x1="5.14541" y1="11.2402" x2="5.14541" y2="15.9203" gradientUnits="userSpaceOnUse">
<stop stop-color="#0A66C2"/>
<stop offset="1" stop-color="#0080FF"/>
</linearGradient>
<linearGradient id="paint5_linear_2055_43" x1="3.26066" y1="9.61426" x2="3.26066" y2="12.5878" gradientUnits="userSpaceOnUse">
<stop stop-color="#0A66C2"/>
<stop offset="1" stop-color="#0080FF"/>
</linearGradient>
<linearGradient id="paint6_linear_2055_43" x1="41.7559" y1="2" x2="41.7559" y2="15" gradientUnits="userSpaceOnUse">
<stop stop-color="#0A66C2"/>
<stop offset="1" stop-color="#0080FF"/>
</linearGradient>
</defs>
</svg>
